<svg id="Layer_1" data-name="Layer 1" xmlns="http://www.w3.org/2000/svg" viewBox="0 0 297.36 51.4"><defs><style>.cls-1{fill:#c1272d;}</style></defs><title>logo</title><path class="cls-1" d="M45.55,45.87l-6.63,8.57H22.18a23.94,23.94,0,0,1-8-1.3A19.79,19.79,0,0,1,7.8,49.58,16.5,16.5,0,0,1,3.61,44.2a15.25,15.25,0,0,1-1.52-6.75,14.62,14.62,0,0,1,1.52-6.66A15.87,15.87,0,0,1,7.8,25.61a19.2,19.2,0,0,1,6.35-3.34,26.46,26.46,0,0,1,8-1.17H45.55l-6.63,8.67H22.18a12.2,12.2,0,0,0-3.89.6A9.35,9.35,0,0,0,15.2,32a7.6,7.6,0,0,0-2,2.57,7.19,7.19,0,0,0-.75,3.28,7.33,7.33,0,0,0,.72,3.27,7.16,7.16,0,0,0,2,2.51,9.62,9.62,0,0,0,3.12,1.62,12.49,12.49,0,0,0,3.89.58Z" transform="translate(-2.09 -20.55)"/><path class="cls-1" d="M61.54,54.44l6.23-8.57H79.26c1.08,0,2,0,2.82.1-.47-.6-1-1.36-1.62-2.27s-1.21-1.77-1.77-2.57l-6-8.82L57.06,54.44H44.85L66.23,24.29a11.61,11.61,0,0,1,2.64-2.59,6.7,6.7,0,0,1,4-1.15,6.82,6.82,0,0,1,3.91,1.07,10.43,10.43,0,0,1,2.67,2.67l20.83,30.15Z" transform="translate(-2.09 -20.55)"/><path class="cls-1" d="M148,33.61a11.49,11.49,0,0,1-1.1,5.06,10.51,10.51,0,0,1-3.21,3.86A16.3,16.3,0,0,1,138.54,45a24.46,24.46,0,0,1-6.93.9H114.17v8.52H103.9v-17h28.71a5.83,5.83,0,0,0,3.71-1,3.39,3.39,0,0,0,1.32-2.79,3.32,3.32,0,0,0-1.32-2.77,6,6,0,0,0-3.71-1H103.9l6.83-8.67h20.93a24.08,24.08,0,0,1,6.93.92,15.53,15.53,0,0,1,5.13,2.57,11,11,0,0,1,3.19,3.94A11.61,11.61,0,0,1,148,33.61Z" transform="translate(-2.09 -20.55)"/><path class="cls-1" d="M195.65,45.87,189,54.44H172.28a23.94,23.94,0,0,1-8-1.3,19.79,19.79,0,0,1-6.35-3.56,16.5,16.5,0,0,1-4.19-5.38,15.25,15.25,0,0,1-1.52-6.75,14.62,14.62,0,0,1,1.52-6.66,15.87,15.87,0,0,1,4.19-5.18,19.2,19.2,0,0,1,6.35-3.34,26.46,26.46,0,0,1,8-1.17h23.37L189,29.77H172.28a12.16,12.16,0,0,0-3.89.6A9.35,9.35,0,0,0,165.3,32a7.6,7.6,0,0,0-2,2.57,7.19,7.19,0,0,0-.75,3.28,7.33,7.33,0,0,0,.72,3.27,7.16,7.16,0,0,0,2,2.51,9.62,9.62,0,0,0,3.12,1.62,12.44,12.44,0,0,0,3.89.58Z" transform="translate(-2.09 -20.55)"/><path class="cls-1" d="M222.56,20.55q12.15,0,18.26,4.14t6.11,13.06q0,9-6.08,13.1T222.56,55q-12.27,0-18.32-4.14t-6.05-13.1q0-8.92,6.08-13.06T222.56,20.55Zm0,25.77a55.41,55.41,0,0,0,6.58-.33,11.66,11.66,0,0,0,4.36-1.27,5.53,5.53,0,0,0,2.41-2.61,10.77,10.77,0,0,0,.75-4.36,10.79,10.79,0,0,0-.75-4.37,5.44,5.44,0,0,0-2.41-2.59,12.07,12.07,0,0,0-4.36-1.24,65.77,65.77,0,0,0-13.16,0,12,12,0,0,0-4.36,1.24,5.51,5.51,0,0,0-2.42,2.59,10.79,10.79,0,0,0-.75,4.37,10.77,10.77,0,0,0,.75,4.36,5.6,5.6,0,0,0,2.42,2.61A11.61,11.61,0,0,0,216,46,55.29,55.29,0,0,0,222.56,46.32Z" transform="translate(-2.09 -20.55)"/><path class="cls-1" d="M299.45,54.44h-13.8l-7.43-8.82H262.38v8.82H252.06v-17h29a7.71,7.71,0,0,0,4-1,3.05,3.05,0,0,0,1.64-2.74,3.24,3.24,0,0,0-1.49-2.92,7.73,7.73,0,0,0-4.19-1h-29l6.73-8.67h21.43a34.58,34.58,0,0,1,5.88.52,18.23,18.23,0,0,1,5.53,1.87,11.9,11.9,0,0,1,4.11,3.64A10,10,0,0,1,297.36,33a11.24,11.24,0,0,1-.6,3.69,10.15,10.15,0,0,1-4.46,5.51,11.52,11.52,0,0,1-3.66,1.37c.56.43,1.19,1,1.89,1.64s1.63,1.58,2.79,2.74Z" transform="translate(-2.09 -20.55)"/><path d="M183.87,59.78a15.55,15.55,0,0,1,3-.26,5,5,0,0,1,3.51,1,3,3,0,0,1,1,2.31,3.2,3.2,0,0,1-2.29,3.1v0a3,3,0,0,1,1.79,2.45,19.23,19.23,0,0,0,.93,3.33h-1.62a15.42,15.42,0,0,1-.81-2.9c-.36-1.67-1-2.3-2.43-2.36h-1.47v5.26h-1.57Zm1.57,5.52H187c1.67,0,2.73-.91,2.73-2.3,0-1.57-1.13-2.25-2.79-2.27a5.91,5.91,0,0,0-1.54.15Z" transform="translate(-2.09 -20.55)"/><path d="M194.45,67.68a2.8,2.8,0,0,0,3,3,5.71,5.71,0,0,0,2.41-.45l.27,1.13a7,7,0,0,1-2.89.54,4,4,0,0,1-4.29-4.39c0-2.63,1.55-4.7,4.09-4.7,2.84,0,3.6,2.5,3.6,4.1a5.31,5.31,0,0,1-.06.74Zm4.65-1.13A2.26,2.26,0,0,0,196.9,64a2.63,2.63,0,0,0-2.43,2.58Z" transform="translate(-2.09 -20.55)"/><path d="M204.5,60.53V63h2.27v1.2H204.5v4.7c0,1.08.3,1.69,1.19,1.69a3.69,3.69,0,0,0,.91-.1l.08,1.18a3.84,3.84,0,0,1-1.41.22,2.17,2.17,0,0,1-1.71-.67A3.2,3.2,0,0,1,203,69V64.24H201.6V63H203V61Z" transform="translate(-2.09 -20.55)"/><path d="M213.37,71.75l-.12-1.1h-.06a3.22,3.22,0,0,1-2.66,1.3,2.48,2.48,0,0,1-2.67-2.5c0-2.11,1.87-3.26,5.24-3.25V66a1.79,1.79,0,0,0-2-2,4.31,4.31,0,0,0-2.27.65l-.36-1a5.4,5.4,0,0,1,2.86-.77c2.67,0,3.32,1.82,3.32,3.56v3.26a12.06,12.06,0,0,0,.14,2.09Zm-.23-4.45c-1.73,0-3.69.27-3.69,2a1.4,1.4,0,0,0,1.49,1.51,2.18,2.18,0,0,0,2.11-1.46,1.76,1.76,0,0,0,.09-.5Z" transform="translate(-2.09 -20.55)"/><path d="M219,60.59a1,1,0,0,1-2,0,1,1,0,0,1,1-1A.94.94,0,0,1,219,60.59Zm-1.77,11.16V63h1.59v8.71Z" transform="translate(-2.09 -20.55)"/><path d="M221.43,59H223V71.75h-1.59Z" transform="translate(-2.09 -20.55)"/><path d="M229.34,69.84a5.53,5.53,0,0,0,2.8.79c1.61,0,2.54-.84,2.54-2.07s-.64-1.78-2.28-2.41c-2-.7-3.21-1.73-3.21-3.44,0-1.89,1.57-3.29,3.93-3.29a5.47,5.47,0,0,1,2.68.59l-.43,1.28a4.81,4.81,0,0,0-2.31-.58c-1.65,0-2.28,1-2.28,1.82,0,1.14.73,1.69,2.41,2.34,2.05.79,3.1,1.78,3.1,3.57s-1.39,3.49-4.25,3.49a6.32,6.32,0,0,1-3.1-.77Z" transform="translate(-2.09 -20.55)"/><path d="M246.37,67.32A4.27,4.27,0,0,1,242,72a4.15,4.15,0,0,1-4.18-4.49,4.25,4.25,0,0,1,4.32-4.62A4.13,4.13,0,0,1,246.37,67.32Zm-6.92.09c0,1.91,1.1,3.35,2.65,3.35s2.65-1.42,2.65-3.38c0-1.48-.74-3.35-2.62-3.35S239.45,65.75,239.45,67.41Z" transform="translate(-2.09 -20.55)"/><path d="M248.36,59H250V71.75h-1.59Z" transform="translate(-2.09 -20.55)"/><path d="M259.9,69.37c0,.9,0,1.7.07,2.38h-1.4l-.09-1.42h0A3.27,3.27,0,0,1,255.56,72c-1.37,0-3-.76-3-3.82V63h1.58v4.82c0,1.66.5,2.77,1.94,2.77a2.25,2.25,0,0,0,2.24-2.25V63h1.58Z" transform="translate(-2.09 -20.55)"/><path d="M264.44,60.53V63h2.26v1.2h-2.26v4.7c0,1.08.3,1.69,1.18,1.69a3.78,3.78,0,0,0,.92-.1l.07,1.18a3.74,3.74,0,0,1-1.4.22,2.17,2.17,0,0,1-1.71-.67,3.2,3.2,0,0,1-.61-2.26V64.24h-1.35V63h1.35V61Z" transform="translate(-2.09 -20.55)"/><path d="M270.25,60.59a1,1,0,0,1-2,0,1,1,0,0,1,1-1A.94.94,0,0,1,270.25,60.59Zm-1.76,11.16V63h1.58v8.71Z" transform="translate(-2.09 -20.55)"/><path d="M280.58,67.32A4.26,4.26,0,0,1,276.24,72a4.15,4.15,0,0,1-4.17-4.49,4.25,4.25,0,0,1,4.32-4.62C278.89,62.84,280.58,64.66,280.58,67.32Zm-6.91.09c0,1.91,1.1,3.35,2.65,3.35S279,69.34,279,67.38c0-1.48-.74-3.35-2.61-3.35S273.67,65.75,273.67,67.41Z" transform="translate(-2.09 -20.55)"/><path d="M282.58,65.39c0-.9,0-1.63-.07-2.35h1.4l.09,1.44h0a3.2,3.2,0,0,1,2.88-1.64c1.21,0,3.08.72,3.08,3.71v5.2h-1.59v-5c0-1.41-.52-2.58-2-2.58a2.25,2.25,0,0,0-2.13,1.62,2.35,2.35,0,0,0-.11.74v5.24h-1.58Z" transform="translate(-2.09 -20.55)"/><path d="M292.35,70.13a4.13,4.13,0,0,0,2.09.63c1.15,0,1.69-.58,1.69-1.3s-.45-1.17-1.62-1.6c-1.56-.56-2.3-1.42-2.3-2.47,0-1.4,1.13-2.55,3-2.55a4.35,4.35,0,0,1,2.15.54l-.4,1.15a3.34,3.34,0,0,0-1.78-.5c-.94,0-1.46.54-1.46,1.18s.52,1.05,1.66,1.48c1.51.58,2.28,1.33,2.28,2.63,0,1.53-1.18,2.61-3.25,2.61a5,5,0,0,1-2.45-.59Z" transform="translate(-2.09 -20.55)"/></svg>